<svg viewBox="0 0 512 512" xml:space="preserve" xmlns="http://www.w3.org/2000/svg" shape-rendering="geometricPrecision" text-rendering="geometricPrecision" image-rendering="optimizeQuality" fill-rule="evenodd" clip-rule="evenodd"><path d="M437 437c-50 50-115 75-181 75s-131-25-181-75S0 322 0 256 25 125 75 75 190 0 256 0s131 25 181 75 75 115 75 181-25 131-75 181zm-181 63c63 0 125-23 173-71s71-110 71-173-23-125-71-173-110-71-173-71S131 35 83 83 12 193 12 256s23 125 71 173 110 71 173 71z" fill="#ffffff" fill-rule="nonzero" class="fill-000000"></path><path d="M220 145c-3 0-6-3-6-6s3-6 6-6h153c3 0 6 3 6 6v153c0 3-3 6-6 6s-6-3-6-6V145H220z" fill="#ffffff" fill-rule="nonzero" class="fill-000000"></path><path d="M369 135c2-2 6-2 8 0s2 6 0 8L143 377c-2 2-6 2-8 0s-2-6 0-8l234-234z" fill="#ffffff" fill-rule="nonzero" class="fill-000000"></path></svg>