<svg width="1240" height="1240" viewBox="0 0 1240 1240" fill="none" xmlns="http://www.w3.org/2000/svg">
<g clip-path="url(#clip0_220_17)">
<path d="M1023.06 838.738L944.446 507.946L815.979 822.748L843.429 483.852L623.97 743.547L754.801 429.721L465.833 608.889L687.239 350.852L357.048 431.955L647.355 254.965L308.262 230.064L639.054 151.446L324.252 22.9785L663.148 50.4288L403.453 -169.03L717.28 -38.1987L538.111 -327.167L796.149 -105.761L715.045 -435.952L892.036 -145.645L916.936 -484.738L995.554 -153.946L1124.02 -468.748L1096.57 -129.852L1316.03 -389.547L1185.2 -75.7206L1474.17 -254.889L1252.76 3.14855L1582.95 -77.955L1292.65 99.0355L1631.74 123.936L1300.95 202.554L1615.75 331.022L1276.85 303.571L1536.55 523.03L1222.72 392.199L1401.89 681.167L1143.85 459.761L1224.96 789.953L1047.96 499.645L1023.06 838.738Z" fill="#ECE8D9"/>
<path d="M927.376 839.492L897.132 500.834L724.741 793.896L800.628 462.467L546.113 687.914L720.704 396.157L408.979 531.92L665.182 308.393L326.761 341.184L639.498 207.769L307.508 134.376L646.166 104.132L353.104 -68.2592L684.533 7.6283L459.086 -246.887L750.843 -72.2963L615.08 -384.021L838.606 -127.818L805.816 -466.239L939.231 -153.502L1012.62 -485.492L1042.87 -146.834L1215.26 -439.896L1139.37 -108.467L1393.89 -333.914L1219.3 -42.1566L1531.02 -177.92L1274.82 45.6064L1613.24 12.8163L1300.5 146.231L1632.49 219.624L1293.83 249.868L1586.9 422.259L1255.47 346.372L1480.91 600.887L1189.16 426.296L1324.92 738.021L1101.39 481.818L1134.18 820.239L1000.77 507.502L927.376 839.492Z" fill="#ECE8D9"/>
</g>
<defs>
<clipPath id="clip0_220_17">
<rect width="1240" height="1240" fill="white"/>
</clipPath>
</defs>
</svg>
