<svg width="1240" height="1240" viewBox="0 0 1240 1240" fill="none" xmlns="http://www.w3.org/2000/svg">
<path d="M557.143 1240L540.464 921.267L368.629 1190.23L451.26 881.944L204.721 1084.64L378.573 816.98L81.4629 933.574L329.52 732.734L10.9209 751.81L308.9 637.453L0 557.143L318.733 540.464L49.7688 368.629L358.056 451.26L155.356 204.721L423.02 378.574L306.426 81.463L507.266 329.52L488.19 10.921L602.547 308.9L682.857 0L699.536 318.733L871.371 49.7689L788.74 358.056L1035.28 155.356L861.426 423.02L1158.54 306.426L910.48 507.266L1229.08 488.19L931.1 602.547L1240 682.857L921.267 699.536L1190.23 871.371L881.944 788.74L1084.64 1035.28L816.98 861.427L933.574 1158.54L732.734 910.48L751.81 1229.08L637.453 931.1L557.143 1240Z" fill="#ECE8D9"/>
</svg>
