<?xml version="1.0" ?><!DOCTYPE svg  PUBLIC '-//W3C//DTD SVG 1.1//EN'  'http://www.w3.org/Graphics/SVG/1.1/DTD/svg11.dtd'><svg height="1694.411px" style="enable-background:new 0 0 1694.551 1694.411;" version="1.1" viewBox="0 0 1694.551 1694.411" width="1694.551px" xml:space="preserve" xmlns="http://www.w3.org/2000/svg" xmlns:xlink="http://www.w3.org/1999/xlink"><g id="tag"><path d="M1650.385,1027.969L820.159,197.785c-12.391-12.392-29.199-19.354-46.73-19.35l-375.338,0.058   c-17.511,0.003-34.303,6.956-46.688,19.331l-30.086,30.058L112.787,19.352c-25.803-25.802-67.633-25.802-93.435,0   c-25.803,25.803-25.803,67.636,0,93.438l208.483,208.487l-29.267,30.051C186.161,363.723,180,380.537,180,398.068v375.393   c0,17.524,6.154,34.332,18.55,46.724l829.835,830.101c28.465,28.458,66.119,44.126,106.4,44.126   c40.27,0,78.03-15.662,106.523-44.129l409.115-409.136c28.453-28.461,44.109-66.306,44.125-106.564   C1694.564,1094.288,1678.855,1056.42,1650.385,1027.969z M1556.934,1147.709l-409.141,409.109   c-4.51,4.507-9.672,5.452-13.207,5.452c-3.529,0-7.949-0.945-12.439-5.434L312,746.091V425.454l10.013-10.736L515.25,608.32   c12.898,12.901,29.623,19.353,46.535,19.353c16.904,0,33.725-6.452,46.623-19.353c25.802-25.799,25.754-67.635-0.048-93.438   L414.777,321.318l10.687-10.688l320.62-0.049l810.886,810.848c4.479,4.475,5.417,9.598,5.415,13.107   C1562.381,1138.06,1561.436,1143.209,1556.934,1147.709z"/></g><g id="Layer_1"/></svg>