<?xml version="1.0" ?><svg id="Layer_2" style="enable-background:new 0 0 32 32;" version="1.1" viewBox="0 0 32 32" xml:space="preserve" xmlns="http://www.w3.org/2000/svg" xmlns:xlink="http://www.w3.org/1999/xlink"><g><path d="M4.52002,4.48999l-3.88,18.40997c-0.40002,1.90002,0.07001,3.86005,1.29999,5.37   c1.21997,1.51001,3.03998,2.38,4.98999,2.38h18.14001c1.95001,0,3.77002-0.87,4.98999-2.38   c1.22998-1.50995,1.70001-3.46997,1.29999-5.37L27.47998,4.5c-0.38-1.83002-2.01996-3.15002-3.88-3.15002H8.40002   C6.53998,1.34998,4.90002,2.66998,4.52002,4.48999z M8.90997,7.53998c0-0.83002,0.67004-1.5,1.5-1.5c0.83002,0,1.5,0.66998,1.5,1.5   v7.31c0,2.25,1.84003,4.09003,4.09003,4.09003s4.09003-1.84003,4.09003-4.09003v-7.31c0-0.83002,0.66998-1.5,1.5-1.5   c0.82996,0,1.5,0.66998,1.5,1.5v7.31c0,3.91003-3.18005,7.09003-7.09003,7.09003s-7.09003-3.17999-7.09003-7.09003V7.53998z"/></g></svg>